#N canvas 0 44 400 400 10;
#X obj 50 50 inlet~;
#X obj 50 100 *~;
#X obj 50 150 lop~ 10;
#X obj 150 100 r window_hz;
#X obj 50 200 snapshot~;
#X obj 150 150 r trigger;
#X obj 50 250 sqrt;
#X obj 50 300 rmstodb;
#X obj 50 350 outlet;
#X connect 0 0 1 0;
#X connect 0 0 1 1;
#X connect 1 0 2 0;
#X connect 2 0 4 0;
#X connect 3 0 2 1;
#X connect 4 0 6 0;
#X connect 5 0 4 0;
#X connect 6 0 7 0;
#X connect 7 0 8 0;
